<svg width="170" height="40" viewBox="0 0 170 40" fill="none" xmlns="http://www.w3.org/2000/svg">
<path d="M46.3569 34.3305C47.3042 34.3305 47.8659 33.8075 47.8659 32.9398C47.8659 32.072 47.3042 31.5494 46.3569 31.5494H45.0352V34.3305H46.3569ZM44 30.6149H46.434C47.9318 30.6149 48.9231 31.5381 48.9231 32.9398C48.9231 34.3415 47.9099 35.265 46.434 35.265H45.0352V37.8457H44V30.6149Z" fill="#FF8000"/>
<path d="M52.3078 37.097C53.404 37.097 54.2033 36.2393 54.2033 35.0767C54.2033 33.9143 53.404 33.0566 52.3078 33.0566C51.2118 33.0566 50.4125 33.9143 50.4125 35.0767C50.4125 36.2393 51.2118 37.097 52.3078 37.097ZM49.3848 35.0767C49.3848 33.7112 50.3212 32.1538 52.3078 32.1538C54.2947 32.1538 55.2309 33.7112 55.2309 35.0767C55.2309 36.4424 54.2947 38 52.3078 38C50.3212 38 49.3848 36.4424 49.3848 35.0767Z" fill="#FF8000"/>
<path d="M55.5391 32.3072H56.5937L58.1033 36.6125H58.1255L59.402 32.3072H60.4455L61.7218 36.6125H61.7441L63.2538 32.3072H64.3083L62.288 37.8457H61.1669L59.9014 33.8209L58.6806 37.8457H57.5594L55.5391 32.3072" fill="#FF8000"/>
<path d="M65.4761 34.5576H68.8304C68.7533 33.7563 68.1242 33.034 67.1422 33.034C66.1491 33.034 65.5424 33.7563 65.4761 34.5576ZM64.4609 35.0767C64.4609 33.3502 65.5533 32.1538 67.1422 32.1538C68.7421 32.1538 69.8455 33.3162 69.8455 35.0429C69.8455 35.1785 69.8345 35.3139 69.8236 35.4154H65.4541C65.5091 36.386 66.2815 37.097 67.1973 37.097C67.9809 37.097 68.5325 36.7586 68.8966 36.341L69.5145 36.9615C69.018 37.6161 68.2125 38 67.1864 38C65.5754 38 64.4609 36.815 64.4609 35.0767Z" fill="#FF8000"/>
<path d="M71.0762 32.2883H71.9991V32.9522H72.0212C72.285 32.4571 72.8125 32.1534 73.5048 32.1534C73.7905 32.1534 74.0763 32.2095 74.3069 32.3107L73.9774 33.2782C73.7796 33.1771 73.5377 33.132 73.3071 33.132C72.5378 33.132 72.0432 33.762 72.0432 34.6621V37.8457H71.0762V32.2883Z" fill="#FF8000"/>
<path d="M75.6304 34.5576H78.9847C78.9074 33.7563 78.2785 33.034 77.2965 33.034C76.3034 33.034 75.6966 33.7563 75.6304 34.5576ZM74.6152 35.0767C74.6152 33.3502 75.7076 32.1538 77.2965 32.1538C78.8964 32.1538 79.9998 33.3162 79.9998 35.0429C79.9998 35.1785 79.9888 35.3139 79.9777 35.4154H75.6083C75.6634 36.386 76.4358 37.097 77.3516 37.097C78.135 37.097 78.6868 36.7586 79.0509 36.341L79.6688 36.9615C79.1722 37.6161 78.3668 38 77.3407 38C75.7296 38 74.6152 36.815 74.6152 35.0767" fill="#FF8000"/>
<path d="M85.4835 35.11C85.4835 33.9275 84.6608 33.1129 83.638 33.1129C82.593 33.1129 81.7701 33.9275 81.7701 35.11C81.7701 36.2929 82.593 37.1073 83.638 37.1073C84.6608 37.1073 85.4835 36.2929 85.4835 35.11ZM80.7695 35.11C80.7695 33.5703 81.8257 32.2204 83.549 32.2204C84.4385 32.2204 85.0166 32.5105 85.4614 33.0238H85.4835V30H86.4618V37.866H85.5279V37.1409H85.506C85.1388 37.654 84.4385 38 83.549 38C81.8257 38 80.7695 36.6498 80.7695 35.11" fill="#FF8000"/>
<path d="M95.6409 35.11C95.6409 33.9275 94.8405 33.1129 93.8239 33.1129C92.8286 33.1129 92.028 33.9275 92.028 35.11C92.028 36.2929 92.8286 37.1073 93.8239 37.1073C94.8405 37.1073 95.6409 36.2929 95.6409 35.11ZM92.0065 37.1409H91.9848V37.866H91.0762V30H92.028V33.0238H92.0499C92.504 32.5105 93.0449 32.2204 93.9105 32.2204C95.587 32.2204 96.6146 33.5703 96.6146 35.11C96.6146 36.6498 95.587 38 93.9105 38C93.0449 38 92.3419 37.6764 92.0065 37.1409" fill="#FF8000"/>
<path d="M97.4252 39.9439V39.0441C97.5142 39.0666 97.67 39.0892 97.8255 39.0892C98.4704 39.0892 98.6927 38.8641 99.1043 37.9643L96.7695 32.3077H97.8255L99.6157 36.7049H99.6378L101.428 32.3077H102.462L100.172 37.8632C99.5713 39.3139 99.0819 40 97.9369 40C97.759 40 97.5586 39.9775 97.4252 39.9439Z" fill="#FF8000"/>
<path d="M105.076 34.2306C105.076 32.4747 106.186 30.4615 108.706 30.4615C109.882 30.4615 110.759 30.9089 111.369 31.5578L110.693 32.2398C110.226 31.7367 109.483 31.401 108.684 31.401C107.207 31.401 106.142 32.6091 106.142 34.2306C106.142 35.8525 107.263 37.0603 108.739 37.0603C109.483 37.0603 110.171 36.8478 110.648 36.4452V35.1815H108.828V34.242H111.692V36.8591C111.103 37.5077 110.016 38 108.684 38C106.208 38 105.076 35.9868 105.076 34.2306" fill="#FF8000"/>
<path d="M115.788 34.1525C116.782 34.1525 117.376 33.6629 117.376 32.8507C117.376 32.0387 116.805 31.5494 115.834 31.5494H114.304V34.1525H115.788ZM113.23 30.6149H115.948C117.456 30.6149 118.472 31.4604 118.472 32.8507C118.472 33.8631 117.798 34.6418 116.816 34.92L118.769 37.8457H117.501L115.674 35.087H114.304V37.8457H113.23V30.6149" fill="#FF8000"/>
<path d="M119.691 35.0437V30.6154H120.71V35.0772C120.71 36.3602 121.491 37.0518 122.455 37.0518C123.442 37.0518 124.211 36.3602 124.211 35.0772V30.6154H125.23V35.0437C125.23 36.6724 124.244 38 122.455 38C120.667 38 119.691 36.6724 119.691 35.0437Z" fill="#FF8000"/>
<path d="M129.559 36.9112C130.321 36.9112 130.8 36.4886 130.8 35.7766C130.8 35.0535 130.321 34.6309 129.559 34.6309H128.1V36.9112H129.559ZM129.33 33.7185C130.027 33.7185 130.484 33.307 130.484 32.6285C130.484 31.9497 130.027 31.5494 129.341 31.5494H128.1V33.7185H129.33ZM127.076 30.6149H129.461C130.702 30.6149 131.53 31.3714 131.53 32.5617C131.53 33.2515 131.138 33.7741 130.593 34.0635C131.355 34.3305 131.845 34.9756 131.845 35.8433C131.845 37.0225 130.876 37.8457 129.581 37.8457H127.076V30.6149Z" fill="#FF8000"/>
<path d="M133.23 30.6149H134.277V33.6964H137.876V30.6149H138.923V37.8457H137.876V34.6309H134.277V37.8457H133.23V30.6149Z" fill="#FF8000"/>
<path d="M140.461 35.0437V30.6154H141.536V35.0772C141.536 36.3602 142.36 37.0518 143.378 37.0518C144.419 37.0518 145.232 36.3602 145.232 35.0772V30.6154H146.307V35.0437C146.307 36.6724 145.266 38 143.378 38C141.49 38 140.461 36.6724 140.461 35.0437" fill="#FF8000"/>
<path d="M150.182 36.9112C150.993 36.9112 151.503 36.4886 151.503 35.7766C151.503 35.0535 150.993 34.6309 150.182 34.6309H148.629V36.9112H150.182ZM149.939 33.7185C150.68 33.7185 151.167 33.307 151.167 32.6285C151.167 31.9497 150.68 31.5494 149.95 31.5494H148.629V33.7185H149.939ZM147.539 30.6149H150.078C151.399 30.6149 152.28 31.3714 152.28 32.5617C152.28 33.2515 151.863 33.7741 151.283 34.0635C152.094 34.3305 152.616 34.9756 152.616 35.8433C152.616 37.0225 151.584 37.8457 150.205 37.8457H147.539V30.6149Z" fill="#FF8000"/>
<path d="M163.036 25.2305C160.264 25.2305 156.924 24.0528 156.924 21.6086V19.9037H159.997V20.815C159.997 21.9043 161.486 22.4338 163.094 22.4338C164.647 22.4338 165.777 21.8728 165.777 20.815C165.777 19.5184 164.286 19.1644 162.26 18.4302C160.025 17.6352 157.46 16.6331 157.46 13.8097C157.46 10.6579 160.62 9.53816 163.362 9.53816C165.571 9.53816 168.819 10.3902 168.819 12.6283V14.5137H165.688V13.6291C165.688 12.8355 164.736 12.335 163.395 12.335C162.142 12.335 161.07 12.8051 161.07 13.7781C161.07 15.0723 162.616 15.5753 164.316 16.1036C166.643 16.839 169.385 17.7831 169.385 20.6938C169.385 23.6977 166.523 25.2305 163.036 25.2305" fill="#FF8000"/>
<path d="M150.316 16.1036C148.619 15.5753 147.07 15.0723 147.07 13.7781C147.07 12.8051 148.14 12.335 149.394 12.335C150.734 12.335 151.689 12.8355 151.689 13.6291V14.5137H154.818V12.6283C154.818 10.3902 151.569 9.53816 149.365 9.53816C146.622 9.53816 143.461 10.6579 143.461 13.8097C143.461 16.6331 146.025 17.6352 148.258 18.4302C150.288 19.1644 151.78 19.5184 151.78 20.8148C151.78 21.8728 150.647 22.4338 149.095 22.4338C147.485 22.4338 145.998 21.9043 145.998 20.8148V19.9037H142.924V21.6086C142.924 24.0528 146.265 25.2305 149.036 25.2305C152.527 25.2305 155.385 23.6977 155.385 20.6938C155.385 17.7831 152.644 16.839 150.316 16.1036" fill="#FF8000"/>
<path d="M130.38 15.7225C130.763 13.6612 132.185 12.3065 134.168 12.3065C135.826 12.3065 137.161 13.5437 137.249 15.7225H130.38ZM134.258 9.53816C129.788 9.53816 126.615 12.7493 126.615 17.3699C126.615 21.6691 129.758 25.2305 134.705 25.2305C138.463 25.2305 140.742 23.1402 140.742 23.1402L139.353 20.6102C139.353 20.6102 137.427 22.2266 134.939 22.2266C132.601 22.2266 130.527 20.7252 130.289 17.8703H140.833C140.833 17.8703 140.923 17.0462 140.923 16.6344C140.923 12.6901 138.581 9.53816 134.258 9.53816" fill="#FF8000"/>
<path d="M125.384 24.988C125.384 24.988 124.765 25.0771 124.061 25.0771C121.705 25.0771 119.585 24.2481 119.585 20.2738V7.46794H117.23V4.76945H123.117V20.0344C123.117 21.3702 123.412 22.1113 124.678 22.1113C125.092 22.1113 125.384 22.0808 125.384 22.0808V24.988" fill="#FF8000"/>
<path d="M109.633 12.7889C107.007 12.7889 105.663 15.4158 105.663 18.2226V22.2378H107.903V24.9229H102.053V15.9482C102.053 14.2634 101.782 12.7889 99.9038 12.7889C97.1568 12.7889 95.8434 15.6504 95.8434 18.3988V22.2378H98.0818V24.9229H89.9943V22.2378H92.2327V13.2009C92.2327 12.7889 91.9944 12.5797 91.5755 12.5797H89.8457V9.89331H93.7242C95.0388 9.89331 95.6948 10.484 95.6948 11.5781V12.254C95.6948 12.6089 95.6358 12.9638 95.6358 12.9638H95.6948C96.4712 11.3702 98.4123 9.53824 100.917 9.53824C103.097 9.53824 104.62 10.5436 105.187 12.8472H105.246C106.083 11.0747 108.141 9.53824 110.56 9.53824C113.694 9.53824 115.455 11.3397 115.455 15.2686V22.2378H117.692V24.9229H111.84V15.9482C111.84 14.1759 111.514 12.7889 109.633 12.7889Z" fill="#FF8000"/>
<path d="M83.0406 18.3405C83.0406 20.2853 81.5637 22.5514 79.4104 22.5514C77.9651 22.5514 77.138 21.5517 77.138 20.4029C77.138 18.0181 80.9443 17.8109 82.3896 17.8109H83.0406V18.3405ZM87.2302 22.1987C86.8161 22.1987 86.5792 21.9928 86.5792 21.5528V15.4287C86.5792 11.5994 84.4564 9.53816 80.4424 9.53816C76.8426 9.53816 74.5411 11.3655 74.5411 11.3655L75.8988 13.8364C75.8988 13.8364 77.8736 12.3944 80.1484 12.3944C81.7711 12.3944 83.0111 13.1008 83.0111 15.1026V15.6322H82.065C79.6164 15.6322 73.5391 16.0769 73.5391 20.6671C73.5391 23.7292 75.9572 25.2305 78.5246 25.2305C82.0358 25.2305 83.3037 22.2859 83.3037 22.2859H83.3644C83.3644 22.2859 83.2745 22.6108 83.2745 23.11V23.2881C83.2745 24.1715 83.8054 24.8767 85.1631 24.8767H88.616V22.1987H87.2302" fill="#FF8000"/>
<path d="M61.4544 15.7225C61.8384 13.6612 63.2617 12.3065 65.2458 12.3065C66.9057 12.3065 68.2386 13.5437 68.3276 15.7225H61.4544ZM71.9991 16.6344C71.9991 12.6901 69.6599 9.53816 65.3342 9.53816C60.8609 9.53816 57.6914 12.7493 57.6914 17.3699C57.6914 21.6691 60.833 25.2305 65.7807 25.2305C69.5405 25.2305 71.8234 23.1402 71.8234 23.1402L70.4306 20.6102C70.4306 20.6102 68.5038 22.2266 66.0172 22.2266C63.6769 22.2266 61.6024 20.7252 61.3647 17.8703H71.9112C71.9112 17.8703 71.9991 17.0462 71.9991 16.6344Z" fill="#FF8000"/>
<path d="M49.4959 25.2305C46.7249 25.2305 43.3848 24.0528 43.3848 21.6086V19.9037H46.4551V20.815C46.4551 21.9043 47.946 22.4338 49.5572 22.4338C51.107 22.4338 52.2396 21.8728 52.2396 20.815C52.2396 19.5184 50.75 19.1644 48.7227 18.4302C46.4857 17.6352 43.9223 16.6331 43.9223 13.8097C43.9223 10.6579 47.082 9.53816 49.8259 9.53816C52.0322 9.53816 55.2818 10.3902 55.2818 12.6283V14.5137H52.1489V13.6291C52.1489 12.8355 51.1954 12.335 49.8542 12.335C48.6025 12.335 47.5288 12.8051 47.5288 13.7781C47.5288 15.0723 49.0787 15.5753 50.7795 16.1036C53.1049 16.839 55.8463 17.7831 55.8463 20.6938C55.8463 23.6977 52.9845 25.2305 49.4959 25.2305" fill="#FF8000"/>
<path d="M31.9794 11.3548H31.9795C31.9078 11.2657 31.853 11.1554 31.8425 11.0387V11.0389C31.498 7.17412 30.9471 4.61078 30.9471 4.61078C30.8605 4.16831 30.478 3.84317 30.0394 3.79081L26.9516 3.41739C26.9249 3.41411 26.8976 3.41248 26.87 3.41248C26.5096 3.41248 26.2177 3.7044 26.2177 4.0644V5.13638C26.2172 5.15781 26.1998 5.17516 26.1782 5.17516C26.1684 5.17516 26.1594 5.17156 26.1525 5.16567L26.1527 5.16583C24.3031 3.50134 22.2207 1.88544 19.9138 0.461977C19.4746 0.168743 18.9531 -0.000452184 18.3853 -0.000452184H18.3839C17.8161 -0.000452184 17.2946 0.168743 16.8556 0.461977C6.19501 7.03896 0.327124 17.7307 0.10069 18.3178C0.0361397 18.4545 0 18.607 0 18.768C0 19.2615 0.338832 19.6758 0.796628 19.7914L3.86758 20.3821C4.27779 20.4945 4.58853 20.8471 4.63503 21.278C4.6601 21.82 5.24046 33.9211 5.96953 37.0601C6.08889 37.5122 6.50191 37.8457 6.99195 37.8457H7.01511C8.8065 37.801 10.4477 37.7711 12.2197 37.7472C12.2197 37.7472 12.2197 37.7472 12.2196 37.7472H12.2145L12.2309 37.7471C12.2762 37.7464 12.3216 37.7459 12.3671 37.7452C12.5565 37.7452 12.7099 37.59 12.7099 37.4008C12.7099 37.3979 12.7099 37.3949 12.7097 37.3919C12.638 36.3353 12.483 33.9193 12.3576 31.3756C12.3544 31.3116 12.3495 31.2316 12.3463 31.167H12.3464C12.3349 30.9457 12.213 30.753 12.0343 30.6445C11.1129 30.0935 10.4813 29.1083 10.4226 27.9717C10.2616 23.7279 10.1798 18.8235 10.4123 14.9857C10.4308 14.6663 10.693 14.4104 11.0183 14.4047C11.3595 14.3988 11.641 14.6704 11.6469 15.0113C11.6473 15.0276 11.6469 15.0437 11.6459 15.0595C11.4944 17.6178 11.4808 20.6423 11.5362 23.6262C11.5432 24.0295 11.8761 24.3511 12.2798 24.344C12.6834 24.337 13.0048 24.0042 12.9979 23.6008C12.9424 20.5965 12.9573 17.5525 13.1129 14.9857C13.1314 14.6663 13.3936 14.4104 13.7189 14.4047C14.0602 14.3988 14.3415 14.6704 14.3476 15.0113C14.3477 15.0276 14.3474 15.0437 14.3464 15.0595C14.1959 17.6042 14.1815 20.6105 14.2359 23.5792C14.2359 23.5799 14.2359 23.5803 14.2359 23.581C14.2439 23.983 14.5762 24.3031 14.9788 24.2961C15.3805 24.289 15.7008 23.9592 15.6964 23.5584C15.6419 20.5678 15.6574 17.5404 15.8122 14.9857C15.8307 14.6663 16.0928 14.4104 16.4182 14.4047C16.7593 14.3988 17.0408 14.6704 17.0468 15.0113C17.047 15.0276 17.0467 15.0437 17.0457 15.0595C16.8248 18.7904 16.897 23.5128 17.049 27.6553C17.049 27.658 17.0503 27.6915 17.0504 27.6941C17.0511 27.7151 17.0514 27.736 17.0517 27.7571C17.0517 27.7573 17.0517 27.7573 17.0517 27.7575C17.0519 27.771 17.0519 27.7846 17.0519 27.7982C17.0519 28.9312 16.483 29.9313 15.6153 30.5293C15.4604 30.6361 15.3558 30.8086 15.342 31.0092C15.342 31.0092 15.2659 31.6453 15.5474 34.728C15.6785 36.0735 15.7788 37.0061 15.8251 37.428C15.8434 37.5876 15.9792 37.7118 16.1441 37.7118C16.24 37.7114 16.3362 37.711 16.4344 37.7107H16.4303C17.0219 37.7084 17.6321 37.7071 18.2661 37.7069H18.3847H18.5031C19.3046 37.7071 20.0682 37.7091 20.8039 37.7127L22.5461 37.7281C22.5467 37.7281 22.5474 37.7281 22.548 37.7281C22.7137 37.7281 22.8495 37.6026 22.8734 37.441C23.2767 33.7468 23.3715 31.6722 23.3715 31.6722C23.3715 31.4855 23.2289 31.3455 23.0416 31.3169L20.9254 31.0251C20.5909 30.9663 20.3921 30.7603 20.3205 30.5069C20.2768 30.353 20.294 30.1804 20.294 30.1804C21.1519 17.8673 25.2144 13.7179 25.2144 13.7179C25.3344 13.5958 25.4115 13.5477 25.4115 13.5477C25.5188 13.4698 25.6508 13.4238 25.7937 13.4238C26.0691 13.4238 26.3046 13.5955 26.3998 13.8372C26.3998 13.8372 26.433 13.9231 26.4522 14.1332C26.8027 18.0037 26.6315 24.59 26.4147 29.7281C26.2306 34.089 26.0077 37.5122 26.0077 37.5122C26.0077 37.5145 26.0077 37.5168 26.0077 37.5191C26.0077 37.6593 26.1214 37.7729 26.2617 37.7729V37.7731C27.4148 37.7924 28.5506 37.8156 29.754 37.8457H29.7773C30.2672 37.8457 30.6803 37.5122 30.7997 37.0601C31.5287 33.9211 32.1091 21.82 32.1341 21.278C32.1806 20.8471 32.4914 20.4945 32.9016 20.3821L35.9726 19.7914C36.4304 19.6758 36.7692 19.2615 36.7692 18.768C36.7692 18.607 36.733 18.4545 36.6685 18.3178C36.5523 18.0166 34.9511 15.0554 31.9794 11.3548" fill="#FF8000"/>
</svg>
